<?xml version="1.0" encoding="utf-8"?><!-- Uploaded to: SVG Repo, www.svgrepo.com, Generator: SVG Repo Mixer Tools -->
<svg width="800px" height="800px" viewBox="0 0 400 400" fill="none" xmlns="http://www.w3.org/2000/svg">
<path d="M97.7992 61.5772C131.271 28.5521 164.454 89.541 129.468 111.346C102.217 128.338 63.0226 104.904 84.3627 74.5011" stroke="#000000" stroke-opacity="0.9" stroke-width="16" stroke-linecap="round" stroke-linejoin="round"/>
<path d="M109.738 135.96C103.045 148.341 99.8644 162.133 97.2782 175.905C94.1955 192.338 97.3403 260.295 87.3111 270.471C66.3891 291.701 35.862 313.162 31 342.779L41.4984 348.028" stroke="#000000" stroke-opacity="0.9" stroke-width="16" stroke-linecap="round" stroke-linejoin="round"/>
<path d="M96.041 216.336C143.374 226.375 138.384 340.193 167.015 340.193" stroke="#000000" stroke-opacity="0.9" stroke-width="16" stroke-linecap="round" stroke-linejoin="round"/>
<path d="M108.689 134.629C4.22898 183.971 102.499 185.664 130.833 146.081C135.317 143.57 142.94 137.764 137.559 134.629" stroke="#000000" stroke-opacity="0.9" stroke-width="16" stroke-linecap="round" stroke-linejoin="round"/>
<path d="M112.742 135.396C131.55 138.544 155.731 177.928 161.692 154.841C166.178 137.477 171.818 119.543 170.039 101.879C174.785 104.866 177.453 93.9657 170.039 93.9657" stroke="#000000" stroke-opacity="0.9" stroke-width="16" stroke-linecap="round" stroke-linejoin="round"/>
<path d="M269.315 78.2047C275.051 60.4636 292.31 50.7981 310.003 53.4578C340.263 58.0035 341.346 91.8318 324.746 109.394C305.31 129.955 265.102 130.831 271.276 75.6285" stroke="#000000" stroke-opacity="0.9" stroke-width="16" stroke-linecap="round" stroke-linejoin="round"/>
<path d="M306.059 148.146C310.023 163.32 315.648 172.704 315.649 194.634C315.649 216.381 303.095 267.194 310.302 277.993C321.573 294.881 386.749 315.186 362.725 341.585" stroke="#000000" stroke-opacity="0.9" stroke-width="16" stroke-linecap="round" stroke-linejoin="round"/>
<path d="M311.308 223.808C288.986 258.755 255.275 303.497 255.275 342.977L244.643 347.748" stroke="#000000" stroke-opacity="0.9" stroke-width="16" stroke-linecap="round" stroke-linejoin="round"/>
<path d="M301.86 146.316C214.089 162.846 251.763 195.228 240.739 110.608C246.85 104.344 231.52 103.306 231.52 110.608" stroke="#000000" stroke-opacity="0.9" stroke-width="16" stroke-linecap="round" stroke-linejoin="round"/>
<path d="M305.009 147.507C280.834 138.531 239.055 121.824 206.787 121.205C202.782 116.821 194.562 109.839 193.726 116.978" stroke="#000000" stroke-opacity="0.9" stroke-width="16" stroke-linecap="round" stroke-linejoin="round"/>
</svg>